HIERARCHY
ROOT mixamorig:Hips
{
	OFFSET -0.000007 99.791939 0.000048
	CHANNELS 6 Xposition Yposition Zposition Xrotation Yrotation Zrotation
	JOINT mixamorig:Spine
	{
		OFFSET -0.000008 9.923462 -1.227335
		CHANNELS 3 Xrotation Yrotation Zrotation
		JOINT mixamorig:Spine1
		{
			OFFSET -0.001162 11.645439 -1.422341
			CHANNELS 3 Xrotation Yrotation Zrotation
			JOINT mixamorig:Spine2
			{
				OFFSET -0.001082 13.360199 -1.626459
				CHANNELS 3 Xrotation Yrotation Zrotation
				JOINT mixamorig:Neck
				{
					OFFSET -0.001294 15.032486 0.792904
					CHANNELS 3 Xrotation Yrotation Zrotation
					JOINT mixamorig:Head
					{
						OFFSET -0.000902 10.321838 3.142429
						CHANNELS 3 Xrotation Yrotation Zrotation
						JOINT mixamorig:HeadTop_End
						{
							OFFSET -0.001464 18.474670 6.636400
							CHANNELS 3 Xrotation Yrotation Zrotation
							End Site
							{
								OFFSET -0.001724 19.630463 0.000000
							}
						}
					}
				}
				JOINT mixamorig:LeftShoulder
				{
					OFFSET 6.105025 9.110947 0.705547
					CHANNELS 3 Xrotation Yrotation Zrotation
					JOINT mixamorig:LeftArm
					{
						OFFSET 12.655060 -0.264816 -2.600928
						CHANNELS 3 Xrotation Yrotation Zrotation
						JOINT mixamorig:LeftForeArm
						{
							OFFSET 27.404680 0.002457 -0.000007
							CHANNELS 3 Xrotation Yrotation Zrotation
							JOINT mixamorig:LeftHand
							{
								OFFSET 27.614456 0.002457 0.000007
								CHANNELS 3 Xrotation Yrotation Zrotation
								JOINT mixamorig:LeftHandThumb1
								{
									OFFSET 3.789009 -2.166824 3.002973
									CHANNELS 3 Xrotation Yrotation Zrotation
									JOINT mixamorig:LeftHandThumb2
									{
										OFFSET 3.675636 -2.121704 2.122010
										CHANNELS 3 Xrotation Yrotation Zrotation
										JOINT mixamorig:LeftHandThumb3
										{
											OFFSET 3.394531 -1.959473 1.959746
											CHANNELS 3 Xrotation Yrotation Zrotation
											JOINT mixamorig:LeftHandThumb4
											{
												OFFSET 2.679504 -1.546753 1.546951
												CHANNELS 3 Xrotation Yrotation Zrotation
												End Site
												{
													OFFSET 2.400604 -1.530380 1.964751
												}
											}
										}
									}
								}
								JOINT mixamorig:LeftHandIndex1
								{
									OFFSET 12.266647 -0.230743 2.822040
									CHANNELS 3 Xrotation Yrotation Zrotation
									JOINT mixamorig:LeftHandIndex2
									{
										OFFSET 3.891968 0.000336 0.000037
										CHANNELS 3 Xrotation Yrotation Zrotation
										JOINT mixamorig:LeftHandIndex3
										{
											OFFSET 3.415161 0.000305 -0.000010
											CHANNELS 3 Xrotation Yrotation Zrotation
											JOINT mixamorig:LeftHandIndex4
											{
												OFFSET 3.077995 0.000275 -0.000009
												CHANNELS 3 Xrotation Yrotation Zrotation
												End Site
												{
													OFFSET 3.077988 0.000259 0.000131
												}
											}
										}
									}
								}
								JOINT mixamorig:LeftHandMiddle1
								{
									OFFSET 12.775536 0.001129 0.000014
									CHANNELS 3 Xrotation Yrotation Zrotation
									JOINT mixamorig:LeftHandMiddle2
									{
										OFFSET 3.613968 0.000320 0.000000
										CHANNELS 3 Xrotation Yrotation Zrotation
										JOINT mixamorig:LeftHandMiddle3
										{
											OFFSET 3.459763 0.000305 -0.000028
											CHANNELS 3 Xrotation Yrotation Zrotation
											JOINT mixamorig:LeftHandMiddle4
											{
												OFFSET 3.680191 0.000320 0.000031
												CHANNELS 3 Xrotation Yrotation Zrotation
												End Site
												{
													OFFSET 3.680191 0.000351 -0.004814
												}
											}
										}
									}
								}
								JOINT mixamorig:LeftHandRing1
								{
									OFFSET 12.147018 0.011063 -2.216636
									CHANNELS 3 Xrotation Yrotation Zrotation
									JOINT mixamorig:LeftHandRing2
									{
										OFFSET 3.601181 0.000320 0.000033
										CHANNELS 3 Xrotation Yrotation Zrotation
										JOINT mixamorig:LeftHandRing3
										{
											OFFSET 3.307320 0.000305 -0.000023
											CHANNELS 3 Xrotation Yrotation Zrotation
											JOINT mixamorig:LeftHandRing4
											{
												OFFSET 3.660118 0.000320 0.000000
												CHANNELS 3 Xrotation Yrotation Zrotation
												End Site
												{
													OFFSET 3.660103 0.000229 0.005616
												}
											}
										}
									}
								}
								JOINT mixamorig:LeftHandPinky1
								{
									OFFSET 10.908218 -0.225174 -4.725837
									CHANNELS 3 Xrotation Yrotation Zrotation
									JOINT mixamorig:LeftHandPinky2
									{
										OFFSET 4.136658 0.000351 0.001166
										CHANNELS 3 Xrotation Yrotation Zrotation
										JOINT mixamorig:LeftHandPinky3
										{
											OFFSET 2.594826 0.000244 -0.001180
											CHANNELS 3 Xrotation Yrotation Zrotation
											JOINT mixamorig:LeftHandPinky4
											{
												OFFSET 2.923874 0.000244 0.000018
												CHANNELS 3 Xrotation Yrotation Zrotation
												End Site
												{
													OFFSET 2.923851 0.000275 -0.003346
												}
											}
										}
									}
								}
							}
						}
					}
				}
				JOINT mixamorig:RightShoulder
				{
					OFFSET -6.106495 9.109970 0.705565
					CHANNELS 3 Xrotation Yrotation Zrotation
					JOINT mixamorig:RightArm
					{
						OFFSET -12.655020 -0.267136 -2.600890
						CHANNELS 3 Xrotation Yrotation Zrotation
						JOINT mixamorig:RightForeArm
						{
							OFFSET -27.404675 -0.002365 0.000019
							CHANNELS 3 Xrotation Yrotation Zrotation
							JOINT mixamorig:RightHand
							{
								OFFSET -27.614464 -0.002396 0.000031
								CHANNELS 3 Xrotation Yrotation Zrotation
								JOINT mixamorig:RightHandThumb1
								{
									OFFSET -3.788620 -2.167480 3.002977
									CHANNELS 3 Xrotation Yrotation Zrotation
									JOINT mixamorig:RightHandThumb2
									{
										OFFSET -3.675247 -2.122314 2.122009
										CHANNELS 3 Xrotation Yrotation Zrotation
										JOINT mixamorig:RightHandThumb3
										{
											OFFSET -3.394188 -1.960129 1.959755
											CHANNELS 3 Xrotation Yrotation Zrotation
											JOINT mixamorig:RightHandThumb4
											{
												OFFSET -2.679230 -1.547195 1.546953
												CHANNELS 3 Xrotation Yrotation Zrotation
												End Site
												{
													OFFSET -2.398781 -1.531693 1.965949
												}
											}
										}
									}
								}
								JOINT mixamorig:RightHandIndex1
								{
									OFFSET -12.266594 -0.232895 2.822051
									CHANNELS 3 Xrotation Yrotation Zrotation
									JOINT mixamorig:RightHandIndex2
									{
										OFFSET -3.891968 -0.000336 0.000040
										CHANNELS 3 Xrotation Yrotation Zrotation
										JOINT mixamorig:RightHandIndex3
										{
											OFFSET -3.415161 -0.000305 -0.000006
											CHANNELS 3 Xrotation Yrotation Zrotation
											JOINT mixamorig:RightHandIndex4
											{
												OFFSET -3.077988 -0.000275 0.000006
												CHANNELS 3 Xrotation Yrotation Zrotation
												End Site
												{
													OFFSET -3.077980 0.000229 -0.008454
												}
											}
										}
									}
								}
								JOINT mixamorig:RightHandMiddle1
								{
									OFFSET -12.775528 -0.001114 0.000025
									CHANNELS 3 Xrotation Yrotation Zrotation
									JOINT mixamorig:RightHandMiddle2
									{
										OFFSET -3.613968 -0.000320 0.000005
										CHANNELS 3 Xrotation Yrotation Zrotation
										JOINT mixamorig:RightHandMiddle3
										{
											OFFSET -3.459763 -0.000305 -0.000025
											CHANNELS 3 Xrotation Yrotation Zrotation
											JOINT mixamorig:RightHandMiddle4
											{
												OFFSET -3.680191 -0.000320 0.000034
												CHANNELS 3 Xrotation Yrotation Zrotation
												End Site
												{
													OFFSET -3.680168 -0.000031 0.012581
												}
											}
										}
									}
								}
								JOINT mixamorig:RightHandRing1
								{
									OFFSET -12.147003 0.008942 -2.216624
									CHANNELS 3 Xrotation Yrotation Zrotation
									JOINT mixamorig:RightHandRing2
									{
										OFFSET -3.601196 -0.000320 0.000037
										CHANNELS 3 Xrotation Yrotation Zrotation
										JOINT mixamorig:RightHandRing3
										{
											OFFSET -3.307312 -0.000290 -0.000019
											CHANNELS 3 Xrotation Yrotation Zrotation
											JOINT mixamorig:RightHandRing4
											{
												OFFSET -3.660118 -0.000320 0.000002
												CHANNELS 3 Xrotation Yrotation Zrotation
												End Site
												{
													OFFSET -3.660110 0.000107 0.002180
												}
											}
										}
									}
								}
								JOINT mixamorig:RightHandPinky1
								{
									OFFSET -10.908173 -0.227081 -4.725826
									CHANNELS 3 Xrotation Yrotation Zrotation
									JOINT mixamorig:RightHandPinky2
									{
										OFFSET -4.136642 -0.000366 0.000029
										CHANNELS 3 Xrotation Yrotation Zrotation
										JOINT mixamorig:RightHandPinky3
										{
											OFFSET -2.594841 -0.000229 -0.000036
											CHANNELS 3 Xrotation Yrotation Zrotation
											JOINT mixamorig:RightHandPinky4
											{
												OFFSET -2.923874 -0.000259 0.000021
												CHANNELS 3 Xrotation Yrotation Zrotation
												End Site
												{
													OFFSET -2.923820 0.000336 -0.012876
												}
											}
										}
									}
								}
							}
						}
					}
				}
			}
		}
	}
	JOINT mixamorig:LeftUpLeg
	{
		OFFSET 9.124458 -6.656387 -0.055378
		CHANNELS 3 Xrotation Yrotation Zrotation
		JOINT mixamorig:LeftLeg
		{
			OFFSET 0.244681 -40.595421 -0.515619
			CHANNELS 3 Xrotation Yrotation Zrotation
			JOINT mixamorig:LeftFoot
			{
				OFFSET -0.244669 -42.047928 -2.059156
				CHANNELS 3 Xrotation Yrotation Zrotation
				JOINT mixamorig:LeftToeBase
				{
					OFFSET 0.373535 -7.208548 13.966561
					CHANNELS 3 Xrotation Yrotation Zrotation
					JOINT mixamorig:LeftToe_End
					{
						OFFSET -0.142059 -0.175224 9.997455
						CHANNELS 3 Xrotation Yrotation Zrotation
						End Site
						{
							OFFSET -0.142060 -0.175223 9.997459
						}
					}
				}
			}
		}
	}
	JOINT mixamorig:RightUpLeg
	{
		OFFSET -9.124448 -6.656403 -0.055378
		CHANNELS 3 Xrotation Yrotation Zrotation
		JOINT mixamorig:RightLeg
		{
			OFFSET -0.244680 -40.595459 -0.514290
			CHANNELS 3 Xrotation Yrotation Zrotation
			JOINT mixamorig:RightFoot
			{
				OFFSET 0.244670 -42.047859 -2.060535
				CHANNELS 3 Xrotation Yrotation Zrotation
				JOINT mixamorig:RightToeBase
				{
					OFFSET -0.373535 -7.208539 13.966558
					CHANNELS 3 Xrotation Yrotation Zrotation
					JOINT mixamorig:RightToe_End
					{
						OFFSET 0.141798 -0.175009 9.997463
						CHANNELS 3 Xrotation Yrotation Zrotation
						End Site
						{
							OFFSET 0.141798 -0.175009 9.997467
						}
					}
				}
			}
		}
	}
}
MOTION
Frames: 4
Frame Time: 0.033333
-1.790959 98.852806 3.289902 -180.736368 -173.500657 -181.712702 -6.984331 2.581362 3.333109 -0.217861 0.348260 -1.217349 -0.210138 0.364540 -1.213839 7.263267 -1.277232 0.709318 18.380857 -5.203486 -0.798076 0.000001 -0.000000 0.000000 0.573845 -3.265969 -0.058055 -82.567486 21.608623 -0.687218 -0.019326 -104.816295 -0.025102 23.895345 21.462669 14.567523 8.211822 6.841864 9.344113 4.720188 17.609295 1.459237 -0.579595 1.574938 2.538709 0.000005 0.000002 0.000003 0.066009 0.953760 -7.924393 -0.000005 -0.000688 -0.000086 0.014211 0.443773 -3.679799 -0.000003 -0.000001 0.000001 0.065264 0.948225 -7.883027 -0.000011 0.011431 -0.094671 0.029248 0.635748 -5.275738 -0.000000 -0.000000 -0.000000 0.066135 0.954645 -7.932559 0.000014 0.007818 -0.072478 0.056988 0.886796 -7.369057 -0.000002 0.000001 -0.000000 0.618007 4.996866 -7.530237 -0.017994 -4.098865 -0.491778 0.087665 1.124037 -9.135552 0.000001 0.000001 -0.000000 1.259148 18.169780 4.572734 -87.657931 -20.550873 -3.291772 0.017043 106.198786 -0.022729 -1.816825 -14.068879 -32.384041 -1.429038 -15.085453 -5.624645 5.585941 -19.311639 -0.940035 -1.273781 0.137194 -2.094872 -0.000000 0.000000 0.000002 0.000981 -0.115798 0.945992 0.052866 -0.856478 7.050187 0.003699 -0.226542 1.859248 0.000001 0.000005 0.000001 0.005132 -0.266914 2.190636 0.086021 -1.091913 8.997920 0.025666 -0.597511 4.909121 0.000001 -0.000001 -0.000001 0.015018 -0.457026 3.747937 0.138723 -1.383649 11.439161 0.080258 -1.055388 8.694433 -0.000001 -0.000001 0.000000 0.026659 -0.608956 5.000020 0.189691 -1.615253 13.389039 0.145373 -1.417436 11.704860 -0.000001 -0.000001 -0.000001 -8.696726 -0.602390 3.849296 18.663721 -2.830792 -2.405569 -11.123048 9.456469 0.853726 -0.000003 -0.000001 0.000000 0.000000 0.000000 0.000000 -3.996030 -8.224740 -2.751313 10.230557 -5.718599 -2.253993 -4.214923 -3.116787 6.403174 -1.327764 -0.000007 0.000008 -0.000000 0.000002 -0.000000 
-1.037173 98.745926 3.516628 -181.012840 -173.168381 -181.796905 -6.766183 2.430737 2.929298 -0.330570 0.332678 -0.806762 -0.325072 0.344277 -0.804079 7.498358 -1.154251 0.367337 18.208909 -5.008284 -1.091964 0.000002 -0.000000 0.000000 0.474937 -2.105583 -0.055807 -83.457235 19.852870 -0.024709 -0.023323 -102.335454 -0.029008 23.447273 21.525891 1.574205 8.211820 6.841862 9.344112 4.720190 17.609302 1.459238 -0.579595 1.574938 2.538709 0.000004 0.000009 0.000008 0.195622 1.633377 -13.662712 0.000010 -0.000680 -0.000094 0.033328 0.678832 -5.634410 -0.000003 0.000001 0.000001 0.176692 1.553466 -12.986724 0.000028 0.018063 -0.149684 0.048534 0.818404 -6.797889 -0.000002 -0.000001 0.000002 0.158414 1.472015 -12.290408 0.000030 0.013967 -0.123599 0.073015 1.003237 -8.343391 0.000002 0.000004 -0.000001 0.963011 5.401484 -11.336381 -0.017996 -4.098869 -0.491753 0.098526 1.189614 -9.686539 -0.000000 0.000001 -0.000000 1.270488 17.821480 4.315462 -87.667787 -18.186482 -3.276119 0.024689 101.389336 -0.030143 -6.656384 -12.432745 -21.230936 -1.429037 -15.085451 -5.624648 5.585939 -19.311636 -0.940039 -1.273783 0.137194 -2.094870 0.000001 -0.000003 0.000003 0.029294 -0.638305 5.240982 0.076124 -1.027007 8.462984 0.009456 -0.362577 2.976517 0.000003 -0.000003 -0.000001 0.035962 -0.706995 5.811622 0.104917 -1.205134 9.940109 0.033746 -0.685042 5.630624 -0.000002 -0.000001 -0.000000 0.045473 -0.794984 6.533035 0.146931 -1.423540 11.773547 0.084811 -1.084708 8.937993 -0.000000 -0.000001 0.000000 0.053946 -0.865683 7.118997 0.185183 -1.596207 13.228266 0.142176 -1.401967 11.575173 -0.000001 0.000002 -0.000001 -8.256745 -2.654982 3.069809 18.516991 -2.155545 -2.721907 -9.951277 8.470323 1.342107 -0.000013 0.000001 0.000000 -0.000000 -0.000000 0.000000 -5.340503 -7.569812 -3.207612 13.173732 -5.496707 -2.422827 -5.093548 -3.221737 6.102675 -1.634295 -0.000023 0.000012 -0.000000 -0.000001 -0.000000 
-0.260930 98.486084 3.764197 -181.517277 -173.066420 -181.763095 -6.376911 2.168869 2.326417 -0.411074 0.299177 -0.440225 -0.407793 0.306341 -0.438466 7.695941 -1.055843 0.076195 18.286597 -4.827574 -1.531184 0.000000 0.000000 -0.000000 0.408616 -1.327661 -0.034728 -82.742845 18.087253 0.545438 -0.037569 -97.711027 -0.043044 16.062901 14.806177 -4.296751 8.211818 6.841865 9.344115 4.720187 17.609295 1.459239 -0.579597 1.574942 2.538708 0.000003 -0.000003 -0.000001 0.410145 2.345846 -19.838534 0.002269 0.177351 -1.475548 0.077558 1.033429 -8.596417 0.000000 0.000002 -0.000005 0.375905 2.248678 -18.988385 0.003286 0.214019 -1.773767 0.090878 1.117894 -9.305152 -0.000000 0.000005 -0.000001 0.342963 2.150570 -18.125486 0.003117 0.207707 -1.729163 0.115024 1.256925 -10.475091 -0.000003 -0.000001 -0.000000 1.535643 5.968795 -17.112827 -0.014947 -3.923500 -1.945048 0.142153 1.421231 -11.640675 -0.000000 -0.000001 0.000005 1.283274 17.629765 4.118465 -86.515745 -15.784644 -3.282829 0.046483 96.099915 -0.051669 -10.813638 -8.187932 -10.272117 -1.429036 -15.085458 -5.624650 5.585938 -19.311641 -0.940034 -1.273783 0.137202 -2.094868 -0.000001 -0.000002 -0.000001 0.126598 -1.322788 10.918220 0.136089 -1.370568 11.326294 0.029131 -0.636448 5.229892 -0.000002 -0.000001 0.000002 0.129723 -1.338887 11.056999 0.162350 -1.496083 12.375099 0.060125 -0.913724 7.519907 -0.000001 -0.000003 0.000003 0.134306 -1.362230 11.247347 0.197213 -1.646319 13.648951 0.114526 -1.259157 10.390666 -0.000001 -0.000003 -0.000000 0.138257 -1.381898 11.413740 0.226605 -1.763091 14.640374 0.170802 -1.534934 12.691972 -0.000000 -0.000003 0.000000 -8.254811 -2.920209 2.824343 19.601176 -3.043945 -3.701223 -10.229850 8.705486 2.495574 -0.000013 -0.000001 -0.000002 -0.000000 0.000000 -0.000000 -7.062588 -5.599231 -3.588280 17.588635 -3.814125 -2.538571 -5.843764 -7.168582 6.605074 -1.989606 -0.000007 0.000015 -0.000000 -0.000000 -0.000000 
0.494293 98.128624 3.991001 -182.263093 -173.211712 -181.598324 -5.618415 1.888103 1.652087 -0.469834 0.259464 -0.237415 -0.468147 0.263525 -0.236472 7.818189 -1.048450 -0.039464 18.377464 -4.872538 -1.899889 0.000000 -0.000000 0.000000 0.402837 -1.270366 0.010329 -79.915447 15.778669 1.098480 -0.170479 -91.712925 -0.175795 5.484063 3.899660 -8.544242 8.211817 6.841866 9.344110 4.720191 17.609297 1.459237 -0.579597 1.574940 2.538705 0.000004 -0.000002 0.000004 0.668259 2.964596 -25.407086 0.062656 0.928733 -7.725768 0.145517 1.411738 -11.783332 -0.000000 0.000002 -0.000003 0.632277 2.887683 -24.706859 0.066811 0.959494 -7.977217 0.162172 1.489197 -12.440180 -0.000000 0.000001 0.000002 0.601172 2.819125 -24.077412 0.063983 0.938533 -7.809608 0.191385 1.616339 -13.522030 -0.000002 0.000000 0.000001 2.213012 6.511587 -23.339117 0.043474 -3.211616 -7.862775 0.223263 1.769155 -14.603592 -0.000001 0.000003 -0.000001 1.292685 17.489408 3.998061 -84.236354 -14.042445 -3.541145 0.406444 90.700841 -0.411151 -14.352934 -1.543428 -0.621386 -1.429035 -15.085458 -5.624647 5.585937 -19.311639 -0.940040 -1.273778 0.137197 -2.094869 -0.000000 0.000001 -0.000001 0.297527 -2.015335 16.779005 0.241589 -1.819305 15.112238 0.071383 -0.995079 8.194121 0.000001 0.000002 -0.000003 0.300056 -2.023706 16.854854 0.267133 -1.911777 15.896418 0.111585 -1.242558 10.252225 -0.000000 0.000000 -0.000002 0.304496 -2.038341 16.975624 0.298549 -2.018274 16.815825 0.174862 -1.552402 12.849054 0.000002 0.000001 -0.000001 0.308629 -2.051852 17.093409 0.323151 -2.098063 17.504330 0.236412 -1.801427 14.946054 -0.000001 -0.000001 0.000005 -8.375224 -2.810723 2.515331 21.342355 -4.899494 -4.710598 -11.456000 9.742444 3.936190 -0.000031 -0.000001 0.000003 0.000000 0.000000 0.000000 -9.061212 -2.944632 -3.649054 23.067110 -3.763552 -2.992450 -6.570456 -10.482194 7.001483 -3.049682 -0.001613 0.366133 0.000000 0.000001 -0.000000 
